<svg xmlns="http://www.w3.org/2000/svg" xmlns:xlink="http://www.w3.org/1999/xlink" width="65" height="65.5" viewBox="0 0 65 65.5"><defs><style>.a{fill:url(#a);}.b{fill:url(#b);}.c{filter:url(#c);}</style><linearGradient id="a" x1="0.5" y1="1" x2="0.5" gradientUnits="objectBoundingBox"><stop offset="0" stop-color="#ff7676"/><stop offset="1" stop-color="#ffae4e"/></linearGradient><linearGradient id="b" x1="0.386" y1="1.08" x2="0.386" y2="-0.063" gradientUnits="objectBoundingBox"><stop offset="0" stop-color="#fff" stop-opacity="0.502"/><stop offset="1" stop-color="#fff"/></linearGradient><filter id="c" x="6" y="10" width="55.499" height="55.5" filterUnits="userSpaceOnUse"><feOffset dy="8" input="SourceAlpha"/><feGaussianBlur stdDeviation="3" result="d"/><feFlood flood-color="#ff4e00"/><feComposite operator="in" in2="d"/><feComposite in="SourceGraphic"/></filter></defs><g transform="translate(-25 -140)"><circle class="a" cx="32.5" cy="32.5" r="32.5" transform="translate(25 140)"/><g class="c" transform="matrix(1, 0, 0, 1, 25, 140)"><path class="b" d="M-15.959-114.5a3.278,3.278,0,0,0,.2-1.1,3.268,3.268,0,0,0-.857-2.2,3.27,3.27,0,0,0,.857-2.2,3.268,3.268,0,0,0-.857-2.2,3.27,3.27,0,0,0,.857-2.2,3.3,3.3,0,0,0-3.3-3.3H-31.137v-4.468h-3.3a1.1,1.1,0,0,1-1.1-1.1v-8.862a1.1,1.1,0,0,1,1.1-1.1h10.727l3.556-1.778v-1.517a1.1,1.1,0,0,1,1.1-1.1,1.1,1.1,0,0,0,1.1-1.1,1.1,1.1,0,0,0-1.1-1.1,1.1,1.1,0,0,0-1.1,1.1,1.1,1.1,0,0,1-1.1,1.1,1.1,1.1,0,0,1-1.1-1.1,3.3,3.3,0,0,1,3.3-3.3,3.3,3.3,0,0,1,3.3,3.3,3.3,3.3,0,0,1-2.2,3.109v.607l3.556,1.778H-3.6a1.1,1.1,0,0,1,1.1,1.1v8.862a1.1,1.1,0,0,1-1.1,1.1h-3.3V-115.6a1.1,1.1,0,0,1-1.1,1.1Zm-6.324-26.966a3.3,3.3,0,0,0,3.23,2.65,3.3,3.3,0,0,0,3.231-2.65l-3.231-1.615ZM-38.9-114.5a1.1,1.1,0,0,1-1.1-1.1,1.1,1.1,0,0,1,1.1-1.1h19.849a1.1,1.1,0,0,1,1.1,1.1,1.1,1.1,0,0,1-1.1,1.1Zm0-4.395a1.1,1.1,0,0,1-1.1-1.1,1.1,1.1,0,0,1,1.1-1.1h19.849a1.1,1.1,0,0,1,1.1,1.1,1.1,1.1,0,0,1-1.1,1.1Zm0-4.395a1.1,1.1,0,0,1-1.1-1.1,1.1,1.1,0,0,1,1.1-1.1h19.849a1.1,1.1,0,0,1,1.1,1.1,1.1,1.1,0,0,1-1.1,1.1Z" transform="translate(55 163)"/></g></g></svg>