<svg xmlns="http://www.w3.org/2000/svg" width="28.797" height="29.62" viewBox="0 0 28.797 29.62"><defs><style>.a{fill:#ffc600;}.b{fill:#fff;stroke:#fff;stroke-width:0.7px;}</style></defs><g transform="translate(-134.266 -389.937)"><rect class="a" width="28.797" height="29.62" rx="14.399" transform="translate(134.266 389.937)"/><g transform="translate(94.539 396.278)"><g transform="translate(47.727 0)"><path class="b" d="M117.438,12.71a.724.724,0,0,0,.722-.722V2.211l3.079,2.742a.724.724,0,1,0,.962-1.082L118.051.179a.726.726,0,0,0-.926-.024.726.726,0,0,0-.313.289l-3.6,3.451a.723.723,0,1,0,1,1.046l2.5-2.405v9.452A.724.724,0,0,0,117.438,12.71Z" transform="translate(-111.658 2)"/></g></g></g></svg>