<svg xmlns="http://www.w3.org/2000/svg" width="65" height="65" viewBox="0 0 65 65"><defs><style>.a{fill:#fff;}.b{fill:#f9c705;}</style></defs><g transform="translate(-285 -140)"><path class="a" d="M32.5,0A32.5,32.5,0,1,1,0,32.5,32.5,32.5,0,0,1,32.5,0Z" transform="translate(285 140)"/><g transform="translate(294 153)"><g transform="translate(20 11)"><path class="b" d="M30.286,20v0a1.281,1.281,0,0,0-.393-.925h0l-7.714-7.714,0,0a1.285,1.285,0,1,0-1.727,1.9L27.185,20,20.36,26.822h0a1.285,1.285,0,0,0,1.818,1.818h0l7.714-7.714h0A1.281,1.281,0,0,0,30.286,20Z" transform="translate(-20 -11)"/></g></g></g></svg>