<svg xmlns="http://www.w3.org/2000/svg" width="51.994" height="23.944" viewBox="0 0 51.994 23.944"><defs><style>.a{fill:#fff;}.b{fill:#ffc600;}</style></defs><g transform="translate(-431.995 -160.86)"><g transform="translate(431.995 160.86)"><path class="a" d="M484.911,161.01a9.407,9.407,0,0,0-3.358,18.513.786.786,0,0,0,.324.018l-1.082,1.441a2.233,2.233,0,0,0-.479,1.06,2.346,2.346,0,0,0,1.922,2.723,2.314,2.314,0,0,0,2.245-.862l6.383-8.1a9.915,9.915,0,0,0,1.645-3.878A9.431,9.431,0,0,0,484.911,161.01Zm-1.624,13.97a4.713,4.713,0,1,1,4.674-4.792A4.7,4.7,0,0,1,483.287,174.98Z" transform="translate(-468.198 -160.86)"/><g transform="translate(0 0.242)"><path class="b" d="M622.119,163.379a2.61,2.61,0,0,0-3.569.719l-3.255,4.127L612.04,164.1a2.61,2.61,0,0,0-3.569-.719,2.641,2.641,0,0,0-.164,3.663l3.96,5.02-3.959,5.019a2.564,2.564,0,0,0,.161,3.6,2.6,2.6,0,0,0,3.571-.657l3.254-4.125,3.254,4.125a2.6,2.6,0,0,0,3.571.657,2.564,2.564,0,0,0,.161-3.6l-3.959-5.019,3.96-5.02A2.641,2.641,0,0,0,622.119,163.379Z" transform="translate(-583.948 -162.902)"/><rect class="b" width="4.65" height="12.916" rx="2.325" transform="translate(0 5.322)"/><path class="b" d="M434.32,162.651a2.325,2.325,0,1,0,2.325,2.325A2.325,2.325,0,0,0,434.32,162.651Z" transform="translate(-431.995 -162.651)"/><path class="b" d="M734.285,162.685h-3.962a2.048,2.048,0,0,0-2.042,2.042h0v13.867a2.325,2.325,0,0,0,4.65,0v-3.5l1.708-.008a6.018,6.018,0,0,0,5.65-5.986v-.41A6.022,6.022,0,0,0,734.285,162.685Zm-.169,8.016h-1.458v-3.639h1.458a1.819,1.819,0,0,1,0,3.639Z" transform="translate(-688.295 -162.68)"/></g></g></g></svg>