<svg xmlns="http://www.w3.org/2000/svg" width="18.644" height="18.101" viewBox="0 0 18.644 18.101"><defs><style>.a{fill:#fff;stroke:#fff;stroke-width:0.1px;}</style></defs><path class="a" d="M91.406,81.632H77.982l-.773-1.818a.635.635,0,0,0-.439-.37l-2.49-.586a.635.635,0,0,0-.291,1.236l2.177.512,5.574,13.1a2.1,2.1,0,1,0,3.761.211h2.287a2.1,2.1,0,1,0,1.933-1.28l-7.051.01-.87-2.044h9.607a.635.635,0,0,0,.635-.635V82.267A.635.635,0,0,0,91.406,81.632Zm-1.684,12.28a.83.83,0,1,1-.83.83A.83.83,0,0,1,89.722,93.912Zm-6.151,0a.83.83,0,1,1-.83.83A.83.83,0,0,1,83.571,93.912Zm7.2-8.428H86.562a.635.635,0,0,0,0,1.27h4.209v2.582H81.26L78.522,82.9H90.771Z" transform="translate(-73.447 -78.79)"/></svg>