<svg xmlns="http://www.w3.org/2000/svg" width="19.265" height="18.831" viewBox="0 0 19.265 18.831"><defs></defs><path class="a" d="M92.253,85.018l-8.838-7.746a.65.65,0,0,0-.857,0l-8.838,7.746a.65.65,0,0,0,.857.977l.684-.6V95.06a.65.65,0,0,0,.65.65H90.063a.65.65,0,0,0,.65-.65V85.4l.684.6a.65.65,0,0,0,.857-.977ZM81.487,94.411V89.057h3v5.353h-3Zm7.926-10.149V94.411H85.788v-6a.65.65,0,0,0-.65-.65h-4.3a.65.65,0,0,0-.65.65v6H76.562V84.261s0,0,0,0l6.426-5.632,6.426,5.632S89.413,84.259,89.413,84.261Z" transform="translate(-73.355 -76.98)"/></svg>